<?xml version="1.0" encoding="utf-8"?>
<!-- Generator: Adobe Illustrator 16.0.0, SVG Export Plug-In . SVG Version: 6.00 Build 0)  -->
<!DOCTYPE svg PUBLIC "-//W3C//DTD SVG 1.1//EN" "http://www.w3.org/Graphics/SVG/1.1/DTD/svg11.dtd">
<svg version="1.1" id="Capa_1" xmlns="http://www.w3.org/2000/svg" xmlns:xlink="http://www.w3.org/1999/xlink" x="0px" y="0px"
	 width="960px" height="560px" viewBox="0 0 960 560" enable-background="new 0 0 960 560" xml:space="preserve">
<g>
	<g>
		<defs>
			<rect id="SVGID_1_" x="404.301" y="252.337" width="144.539" height="70.987"/>
		</defs>
		<clipPath id="SVGID_2_">
			<use xlink:href="#SVGID_1_"  overflow="visible"/>
		</clipPath>
		<g clip-path="url(#SVGID_2_)">
			<path fill="#FFFFFF" d="M549.227,320.48c0,1.094,0,2.19,0,3.284c-48.182,0-96.36,0-144.539,0c0-23.671,0-47.343,0-71.018
				c24.99,0,49.982,0,74.974,0c-0.354,0.135-0.701,0.328-1.063,0.396c-5.458,1.018-8.861,4.309-10.154,10.091
				c-0.137,0.621-0.86,1.277-1.461,1.569c-3.448,1.677-6.154,4.221-8.081,7.663c-3.514,6.286-3.983,13.181-3.35,20.238
				c0.155,1.735,0.371,3.33-0.683,4.889c-0.377,0.562-0.266,1.496-0.364,2.18c2.967-3.361,1.825-7.458,1.874-11.37
				c0.02-1.366-0.11-2.783,0.18-4.089c0.733-3.307,1.37-6.695,2.62-9.79c0.879-2.176,2.432-4.275,4.171-5.771
				c1.906-1.64,4.252-3.006,6.612-3.692c9.034-2.625,17.968-2.188,26.576,2.014c2.526,1.233,4.374,3.351,5.727,5.916
				c3.263,6.181,3.507,12.894,3.045,19.732c-0.056,0.863-0.106,1.788,0.118,2.599c0.425,1.535,1.055,3.007,1.791,5.041
				c-0.153-1.649-0.246-2.815-0.378-3.974c-0.154-1.379-0.439-2.748-0.505-4.13c-0.19-3.947,0.053-7.953-0.512-11.832
				c-1.004-6.915-4.12-12.443-10.527-15.342c-0.527-0.238-0.944-1.169-1.101-1.858c-0.989-4.38-3.067-7.798-7.166-9.493
				c-1.006-0.417-2.077-0.66-3.116-0.984c21.771,0,43.541,0,65.313,0c0,21.073,0,42.145,0,63.217
				c-0.712-3.388-2.043-6.39-5.167-7.932c-1.993-0.983-3.852-1.934-5.049-4.092c-0.459-0.834-1.692-1.16-2.498-1.817
				c-0.865-0.703-1.742-1.438-2.441-2.313c-1.196-1.502-2.153-3.236-3.42-4.66c-1.121-1.258-2.638-1.767-4.235-0.87
				c-1.599,0.898-2,2.521-1.704,4.214c0.316,1.798,1.021,3.514,1.412,5.302c0.163,0.733,0.163,1.671-0.132,2.329
				c-0.93,2.076-0.816,4.046,0.463,5.79c1.228,1.673,2.922,2.417,4.95,1.812c-0.341-0.183-0.712-0.229-1.087-0.288
				c-1.977-0.314-3.33-1.427-3.803-3.531c-0.47-2.089,0.321-3.695,2.066-4.591c1.712-0.88,3.501-1.72,5.343-2.166
				c2.518-0.61,4.688,1.098,5.418,3.885c-0.46,0.229-0.944,0.422-1.383,0.699c-2.758,1.746-4.813,4.125-5.642,7.48
				c-0.618,2.492,0.634,4.692,2.933,5.442c2.045,0.665,4.419-0.566,5.251-2.822c-0.97,0.564-1.817,1.195-2.755,1.58
				c-2.408,0.984-4.676-0.646-4.551-3.196c0.149-3.052,3.863-7.745,6.703-8.356c0.521-0.111,1.147,0.06,1.672,0.262
				c5.395,2.102,7.282,6.12,6.184,13.019c-0.075,0.475-0.919,1.155-1.411,1.16c-8.368,0.069-16.74,0.03-25.11,0.063
				c-1.089,0.005-1.476-0.526-1.61-1.545c-0.304-2.316,1.014-3.924,3.233-3.69c1.063,0.111,2.114,0.554,3.129,0.953
				c1.565,0.609,2.501,0.048,3.001-1.624c-1.015,1.729-2.122,1.194-3.479,0.493c-1.109-0.573-2.44-0.927-3.676-0.916
				c-2.177,0.02-3.479,1.995-3.328,4.611c0.157,2.724,0.267,2.82,3.253,2.82c7.794,0,15.588-0.095,23.373,0.06
				C547.424,323.572,548.975,323.199,549.227,320.48z M472.762,319.692c0.399,0.769,0.799,1.538,1.279,2.463
				c-7.479,0-14.5,0-22.003,0c0.648-1.24,0.944-2.643,1.568-2.833c1.435-0.438,3.025-0.286,4.355-0.363
				c-0.648-1.118-2.547-1.683-4.359-0.96c-1.663,0.664-2.394,2.538-1.976,5.409c0.648,0,1.343,0,2.033,0c18.088,0,36.177,0,54.265,0
				c0.388,0,0.849,0.133,1.145-0.04c0.467-0.274,1.107-0.705,1.182-1.16c0.394-2.384-0.98-4.574-3.221-5.02
				c-1.177-0.233-2.426-0.042-3.545-0.042c0.93-1.503,1.975-3.188,3.02-4.881c0.673,0.477,1.354,0.952,2.025,1.427
				c0.107-0.63,0.008-0.976-0.217-1.151c-1.313-1.04-1.434-2.346-1.496-4.057c-0.081-2.311-0.528-4.867-1.604-6.83
				c-4.614-8.417-16.567-8.283-21.275,0.077c-1.639,2.911-1.976,6.107-0.815,8.801c-0.105-4.183,0.793-7.783,3.588-10.641
				c4.203-4.304,11.069-4.469,15.5-0.383c4.446,4.102,4.91,10.707,1.487,15.593c-3.131,4.479-9.261,5.982-14.487,3.518
				c-0.748-0.352-1.465-1.259-1.767-2.086c-0.89-2.438-1.938-3.644-4.07-4.041c2.404,2.125,3.726,4.627,3.131,7.963
				c-0.232,1.315-0.763,2.039-2.188,1.951c-1.988-0.119-3.988-0.028-5.982-0.028c-3.431,0-4.282-0.815-3.624-4.437
				c0.302-1.666,1.568-3.155,2.49-4.662c0.296-0.485,0.888-0.771,1.618-1.374c-3.202,0.744-4.807,2.67-5.296,5.846
				c-0.104,0.686-0.467,1.328-0.717,1.985c-1.394,0.203-2.788,0.526-4.19,0.588c-8.183,0.357-13.354-5.738-12.683-13.148
				c0.509-5.628,4.784-9.652,10.42-10.32c5.207-0.617,10.322,2.615,12.097,7.833c0.603,1.763,0.792,3.681,1.169,5.527
				c0.306-1.272,0.45-2.567,0.282-3.814c-0.86-6.36-6.406-10.928-12.918-10.718c-6.398,0.207-11.6,5.117-11.964,11.566
				c-0.118,2.052-0.321,3.883-1.741,5.384c-0.125,0.134-0.076,0.454-0.167,1.123c0.88-0.775,1.464-1.288,1.91-1.68
				c1.022,1.713,1.892,3.389,2.953,4.911C461.129,321.516,468.526,322.829,472.762,319.692z M426.283,298.666
				c0.704-1.441,1.359-2.62,1.87-3.866c0.865-2.114,0.347-5.044-1.021-6.296c-1.387-1.271-3.347-1.227-5.486,0.505
				c-1.191,0.964-2.153,2.305-3.056,3.603c-3.733,5.37-6.108,11.214-5.504,18.108c0.054,0.643-0.514,1.592-1.059,2.001
				c-1.975,1.488-3.956,2.921-4.847,5.06c2.054-1.494,4.311-3.084,6.499-4.775c0.356-0.275,0.62-1.026,0.566-1.514
				c-0.919-8.285,2.48-14.861,7.276-20.88c1.157-1.455,3.422-2.12,4.524-1.455c1.097,0.662,1.759,3.223,1.222,4.844
				c-0.148,0.447-0.403,0.856-0.607,1.281c-0.766,1.581-1.561,3.146-2.271,4.754c-0.146,0.331,0.029,0.822,0.056,1.239
				c0.34-0.078,0.722-0.079,1.012-0.25c0.447-0.261,0.805-0.691,1.247-0.959c3.288-1.989,6.589-0.913,7.225,2.514
				c0.479,2.584-0.047,5.197-1.906,6.99c-0.823,0.794-2.555,1.143-3.64,0.815c-0.852-0.257-1.481-1.793-1.946-2.889
				c-0.307-0.716-0.143-1.658-0.205-2.803c-1.558,2.36-1.233,5.075,0.513,6.439c2.059,1.609,5.037,1.242,6.578-0.961
				c1.725-2.469,2.41-5.247,1.772-8.327c-0.102-0.49-0.222-1.262,0.019-1.501c1.584-1.571,3.128-3.27,4.955-4.453
				c1.578-1.021,3.383,0.364,3.204,2.349c-0.104,1.143-0.656,2.348-1.292,3.312c-1.889,2.849-4.016,5.525-5.834,8.422
				c-0.492,0.782-0.589,2.319-0.183,3.119c0.34,0.669,1.654,0.898,2.578,1.077c0.734,0.142,1.536-0.179,2.298-0.127
				c1.558,0.103,3.198,0.201,3.631,2.297c0.447,2.149-0.677,3.521-2.369,4.132c-2.108,0.76-4.325,1.486-6.524,1.6
				c-6.236,0.32-12.488,0.289-18.733,0.461c-3.126,0.087-6.252,0.313-9.376,0.477c9.851,0.273,19.699,0.417,29.537,0.166
				c2.259-0.059,4.576-1.265,6.703-2.318c1.724-0.854,2.301-2.689,1.926-4.72c-0.359-1.945-1.627-2.895-3.366-3.152
				c-1.009-0.148-2.051-0.049-3.07-0.148c-0.815-0.082-1.619-0.299-2.429-0.454c0.26-0.855,0.342-1.846,0.809-2.545
				c2.011-3.008,4.197-5.887,6.196-8.904c1.221-1.84,0.978-4.146-0.331-5.459c-1.417-1.419-3.021-1.564-4.912-0.124
				c-1.604,1.221-3.035,2.699-4.552,4.073C431.43,297.605,430.864,297.539,426.283,298.666z M468.496,308.188
				c-1.236-0.896-2.067-1.938-2.614-1.79c-0.743,0.2-1.267,1.313-1.885,2.032c0.656,0.607,1.284,1.644,1.977,1.693
				C466.609,310.17,467.313,309.153,468.496,308.188z M495.566,310.72c0.91-1.315,1.712-1.98,1.838-2.77
				c0.207-1.246-0.692-2.198-1.817-1.958c-0.688,0.147-1.595,1.179-1.679,1.907C493.833,308.57,494.721,309.368,495.566,310.72z"/>
			<path d="M483.914,252.749c1.039,0.323,2.111,0.566,3.116,0.982c4.099,1.696,6.177,5.113,7.166,9.495
				c0.156,0.689,0.573,1.62,1.101,1.858c6.407,2.899,9.523,8.426,10.527,15.342c0.564,3.878,0.321,7.885,0.512,11.832
				c0.065,1.382,0.349,2.75,0.505,4.129c0.132,1.159,0.225,2.324,0.378,3.975c-0.736-2.034-1.366-3.506-1.791-5.043
				c-0.225-0.809-0.174-1.734-0.118-2.597c0.462-6.838,0.218-13.551-3.045-19.733c-1.353-2.563-3.2-4.681-5.727-5.916
				c-8.607-4.2-17.542-4.638-26.576-2.012c-2.36,0.687-4.706,2.052-6.612,3.692c-1.74,1.495-3.292,3.594-4.171,5.771
				c-1.25,3.095-1.887,6.483-2.62,9.79c-0.291,1.305-0.161,2.723-0.18,4.089c-0.049,3.912,1.093,8.009-1.874,11.37
				c0.099-0.684-0.013-1.619,0.364-2.18c1.054-1.559,0.838-3.155,0.683-4.889c-0.633-7.058-0.164-13.952,3.35-20.239
				c1.927-3.443,4.632-5.985,8.081-7.662c0.601-0.293,1.322-0.949,1.461-1.571c1.292-5.78,4.696-9.072,10.154-10.089
				c0.362-0.069,0.709-0.261,1.063-0.396C481.08,252.749,482.495,252.749,483.914,252.749z M493.283,264.14
				c-0.736-6.53-5.148-10.364-11.68-10.292c-6.75,0.074-11.616,4.019-12.163,9.986c2-0.517,3.771-0.626,5.175-2.987
				c2.995-5.05,11.779-4.679,14.563,0.491C490.183,263.199,491.302,264.01,493.283,264.14z M489.21,262.728
				c-2.337-3.593-5.654-4.896-9.665-4.198c-2.227,0.388-3.825,1.799-5.044,4.198C479.622,262.728,484.396,262.728,489.21,262.728z"
				/>
			<path d="M549.227,320.48c-0.253,2.719-1.803,3.092-4.095,3.047c-7.788-0.155-15.582-0.06-23.373-0.061
				c-2.987,0-3.098-0.096-3.253-2.819c-0.152-2.619,1.148-4.593,3.329-4.612c1.231-0.011,2.563,0.343,3.674,0.918
				c1.357,0.698,2.469,1.233,3.478-0.494c-0.497,1.672-1.436,2.234-3.001,1.623c-1.014-0.399-2.064-0.842-3.126-0.951
				c-2.221-0.235-3.539,1.373-3.236,3.688c0.136,1.02,0.522,1.55,1.612,1.546c8.371-0.032,16.741,0.007,25.112-0.063
				c0.49-0.002,1.333-0.684,1.41-1.158c1.098-6.9-0.791-10.918-6.187-13.02c-0.522-0.203-1.151-0.373-1.672-0.261
				c-2.84,0.609-6.554,5.303-6.7,8.356c-0.127,2.552,2.14,4.182,4.55,3.193c0.938-0.384,1.787-1.014,2.753-1.578
				c-0.832,2.255-3.206,3.486-5.249,2.821c-2.299-0.749-3.55-2.948-2.934-5.44c0.829-3.355,2.886-5.736,5.642-7.479
				c0.438-0.277,0.922-0.473,1.382-0.7c-0.729-2.789-2.899-4.496-5.413-3.885c-1.847,0.446-3.633,1.286-5.348,2.166
				c-1.745,0.896-2.536,2.501-2.066,4.59c0.474,2.104,1.829,3.218,3.806,3.533c0.372,0.06,0.743,0.104,1.084,0.286
				c-2.025,0.606-3.719-0.14-4.95-1.813c-1.279-1.742-1.391-3.712-0.461-5.788c0.293-0.657,0.293-1.594,0.13-2.329
				c-0.391-1.788-1.093-3.503-1.41-5.3c-0.296-1.694,0.104-3.316,1.704-4.216c1.599-0.896,3.112-0.388,4.234,0.871
				c1.267,1.424,2.224,3.157,3.422,4.659c0.701,0.875,1.575,1.61,2.44,2.314c0.804,0.657,2.038,0.982,2.497,1.817
				c1.196,2.158,3.055,3.105,5.048,4.091c3.126,1.542,4.455,4.544,5.167,7.933C549.227,317.471,549.227,318.976,549.227,320.48z
				 M534.043,301.63c-1.481-2.005-2.732-3.974-4.276-5.632c-0.56-0.604-2.107-0.948-2.687-0.553
				c-0.708,0.481-1.298,1.933-1.175,2.847c0.286,2.081,1.037,4.092,1.584,6.07C529.766,303.412,531.65,302.628,534.043,301.63z"/>
			<path d="M426.283,298.666c4.581-1.127,5.147-1.061,7.694,0.756c1.518-1.377,2.949-2.853,4.552-4.074
				c1.891-1.439,3.496-1.297,4.914,0.125c1.307,1.313,1.55,3.619,0.329,5.459c-2,3.018-4.185,5.895-6.196,8.904
				c-0.467,0.699-0.549,1.687-0.808,2.545c0.809,0.155,1.612,0.372,2.428,0.452c1.019,0.102,2.061,0,3.071,0.15
				c1.738,0.258,3.006,1.207,3.365,3.152c0.375,2.03-0.203,3.865-1.926,4.72c-2.126,1.054-4.443,2.26-6.702,2.317
				c-9.838,0.251-19.686,0.107-29.538-0.166c3.124-0.164,6.25-0.391,9.376-0.476c6.246-0.172,12.498-0.142,18.735-0.461
				c2.199-0.113,4.415-0.843,6.523-1.603c1.692-0.608,2.816-1.981,2.371-4.129c-0.435-2.096-2.076-2.194-3.633-2.3
				c-0.762-0.051-1.564,0.271-2.295,0.13c-0.926-0.181-2.241-0.409-2.581-1.078c-0.406-0.799-0.309-2.336,0.183-3.118
				c1.818-2.897,3.947-5.573,5.835-8.423c0.638-0.963,1.189-2.168,1.292-3.311c0.18-1.985-1.625-3.369-3.203-2.349
				c-1.828,1.184-3.372,2.882-4.955,4.453c-0.241,0.238-0.121,1.01-0.02,1.501c0.639,3.078-0.047,5.858-1.772,8.325
				c-1.541,2.205-4.518,2.572-6.578,0.963c-1.746-1.364-2.071-4.079-0.513-6.439c0.063,1.145-0.101,2.086,0.205,2.803
				c0.465,1.096,1.095,2.632,1.946,2.889c1.086,0.327,2.817-0.021,3.64-0.815c1.858-1.794,2.385-4.407,1.906-6.99
				c-0.636-3.427-3.937-4.503-7.225-2.514c-0.442,0.268-0.8,0.697-1.246,0.959c-0.292,0.171-0.672,0.172-1.013,0.25
				c-0.027-0.417-0.202-0.908-0.056-1.24c0.71-1.606,1.506-3.172,2.271-4.753c0.206-0.425,0.459-0.834,0.607-1.281
				c0.539-1.621-0.125-4.182-1.222-4.844c-1.101-0.665-3.366,0-4.524,1.453c-4.795,6.021-8.195,12.597-7.274,20.882
				c0.054,0.487-0.209,1.238-0.567,1.514c-2.188,1.691-4.444,3.281-6.499,4.775c0.891-2.139,2.871-3.571,4.847-5.061
				c0.544-0.408,1.114-1.358,1.058-2c-0.604-6.895,1.771-12.738,5.506-18.109c0.903-1.298,1.863-2.638,3.054-3.602
				c2.139-1.731,4.099-1.776,5.486-0.508c1.369,1.255,1.886,4.184,1.021,6.299C427.643,296.046,426.987,297.225,426.283,298.666z"/>
			<path d="M472.81,319.741c0.245-0.661,0.607-1.304,0.711-1.99c0.491-3.174,2.094-5.101,5.298-5.846
				c-0.732,0.604-1.32,0.889-1.62,1.376c-0.922,1.506-2.186,2.994-2.49,4.66c-0.658,3.621,0.194,4.437,3.624,4.437
				c1.996,0,3.996-0.09,5.982,0.03c1.427,0.086,1.955-0.638,2.189-1.952c0.593-3.337-0.727-5.837-3.131-7.964
				c2.13,0.397,3.179,1.603,4.07,4.042c0.302,0.828,1.021,1.735,1.765,2.085c5.227,2.466,11.356,0.962,14.489-3.516
				c3.421-4.887,2.96-11.492-1.489-15.594c-4.431-4.086-11.297-3.922-15.5,0.382c-2.795,2.859-3.693,6.46-3.588,10.642
				c-1.16-2.694-0.823-5.889,0.815-8.801c4.708-8.36,16.661-8.495,21.275-0.077c1.076,1.965,1.525,4.521,1.604,6.83
				c0.063,1.71,0.185,3.017,1.496,4.056c0.225,0.177,0.324,0.521,0.22,1.151c-0.675-0.475-1.354-0.95-2.031-1.423
				c-1.042,1.689-2.087,3.377-3.017,4.879c1.12,0,2.371-0.193,3.545,0.041c2.24,0.445,3.614,2.635,3.223,5.021
				c-0.076,0.455-0.717,0.884-1.184,1.158c-0.296,0.174-0.756,0.04-1.143,0.04c-18.088,0-36.176,0-54.267,0c-0.69,0-1.385,0-2.031,0
				c-0.419-2.871,0.313-4.745,1.974-5.408c1.812-0.724,3.71-0.159,4.359,0.959c-1.33,0.077-2.921-0.075-4.355,0.363
				c-0.621,0.191-0.917,1.593-1.568,2.833c7.503,0,14.528,0,22.003,0c-0.479-0.923-0.878-1.693-1.279-2.463L472.81,319.741z
				 M487.426,322.168c7.398,0,14.56,0,21.719,0c-0.068-3.219-2.151-5.112-4.599-4.296c-1.568,0.521-3.111,1.145-4.619,1.835
				c-3.664,1.673-7.239,1.688-10.764-0.401c-0.376-0.221-0.778-0.391-1.226-0.614C487.761,319.89,487.605,320.955,487.426,322.168z"
				/>
			<path d="M472.762,319.692c-4.236,3.137-11.633,1.823-14.79-2.704c-1.06-1.522-1.931-3.196-2.953-4.911
				c-0.446,0.392-1.028,0.904-1.91,1.68c0.091-0.669,0.042-0.989,0.167-1.123c1.42-1.501,1.624-3.33,1.741-5.384
				c0.366-6.449,5.569-11.359,11.966-11.564c6.51-0.21,12.058,4.355,12.916,10.716c0.168,1.248,0.024,2.544-0.28,3.814
				c-0.379-1.847-0.569-3.765-1.168-5.524c-1.776-5.221-6.89-8.453-12.099-7.836c-5.637,0.668-9.912,4.694-10.421,10.32
				c-0.669,7.411,4.5,13.506,12.683,13.148c1.404-0.061,2.796-0.385,4.194-0.586C472.81,319.741,472.762,319.692,472.762,319.692z"
				/>
			<path d="M468.496,308.188c-1.184,0.966-1.887,1.982-2.522,1.936c-0.692-0.05-1.318-1.087-1.977-1.693
				c0.619-0.72,1.142-1.832,1.885-2.032C466.429,306.25,467.26,307.291,468.496,308.188z"/>
			<path d="M495.566,310.72c-0.846-1.352-1.733-2.149-1.658-2.82c0.084-0.729,0.99-1.76,1.679-1.907
				c1.125-0.24,2.024,0.712,1.817,1.958C497.278,308.739,496.477,309.404,495.566,310.72z"/>
			<path fill="#FFFFFF" d="M493.283,264.14c-1.981-0.129-3.101-0.941-4.104-2.803c-2.785-5.17-11.569-5.541-14.564-0.491
				c-1.401,2.361-3.173,2.47-5.175,2.987c0.547-5.967,5.413-9.912,12.168-9.985C488.135,253.775,492.545,257.609,493.283,264.14z"/>
			<path fill="#FFFFFF" d="M489.21,262.728c-4.814,0-9.588,0-14.708,0c1.219-2.398,2.819-3.811,5.044-4.198
				C483.556,257.831,486.873,259.134,489.21,262.728z"/>
			<path fill="#FFFFFF" d="M534.043,301.63c-2.393,0.998-4.277,1.782-6.554,2.732c-0.547-1.978-1.298-3.988-1.584-6.07
				c-0.123-0.914,0.467-2.365,1.175-2.846c0.579-0.396,2.127-0.051,2.688,0.552C531.311,297.656,532.562,299.625,534.043,301.63z"/>
			<path fill="#FFFFFF" d="M487.426,322.168c0.18-1.213,0.335-2.278,0.512-3.477c0.447,0.224,0.85,0.394,1.226,0.614
				c3.524,2.09,7.1,2.073,10.764,0.401c1.508-0.69,3.051-1.314,4.619-1.835c2.447-0.816,4.53,1.077,4.599,4.296
				C501.985,322.168,494.824,322.168,487.426,322.168z"/>
		</g>
	</g>
</g>
<rect x="531.448" y="256.221" fill="none" width="73.273" height="65.307"/>
</svg>
